<?xml version="1.0" encoding="UTF-8"?>
<!DOCTYPE svg PUBLIC "-//W3C//DTD SVG 1.1//EN" "http://www.w3.org/Graphics/SVG/1.1/DTD/svg11.dtd">
<!-- Creator: CorelDRAW X8 -->
<svg xmlns="http://www.w3.org/2000/svg" xml:space="preserve" width="100%" height="100%" version="1.1" style="shape-rendering:geometricPrecision; text-rendering:geometricPrecision; image-rendering:optimizeQuality; fill-rule:evenodd; clip-rule:evenodd"
viewBox="0 0 38877 5923"
 xmlns:xlink="http://www.w3.org/1999/xlink">
 <defs>
  <style type="text/css">
   <![CDATA[
    .fil3 {fill:none}
    .fil2 {fill:#FF9D4D}
    .fil4 {fill:#555659;fill-rule:nonzero}
    .fil0 {fill:#FF9D4D;fill-rule:nonzero}
    .fil1 {fill:white;fill-rule:nonzero}
   ]]>
  </style>
 </defs>
 <g id="Layer_x0020_1">
  <metadata id="CorelCorpID_0Corel-Layer"/>
  <path class="fil0" d="M1149 5864l0 -1417c121,0 235,0 362,-20l810 1437 1046 0 0 -150 -1000 -1633c732,-474 709,-1173 709,-1931 -323,0 -643,0 -967,0 0,693 49,1405 -892,1405l-68 0 0 -1405c-327,0 -640,0 -957,0l0 3714c317,0 630,0 957,0l0 0zm3858 -833l0 -2054 431 0 0 -827 -1790 0 0 827 431 0 0 2054 -470 0 0 833 1865 0 0 -833 -467 0 0 0zm3537 833l337 0 0 -3714c-320,0 -640,0 -960,0l0 1816 -1862 -1832 -340 0 0 3730c320,0 647,0 970,0l0 -1826 1855 1826 0 0zm582 -1858c3,1267 951,1901 1885,1901 676,0 1375,-298 1640,-1072 124,-362 124,-718 104,-1087l-1738 0 0 819 781 0c-167,357 -408,458 -787,458 -559,0 -915,-402 -915,-1019 0,-569 320,-1036 915,-1036 372,0 614,127 767,448l925 0c-180,-925 -951,-1310 -1692,-1317 -934,0 -1882,637 -1885,1905l0 0z"/>
  <path class="fil1" d="M1374 1474c-124,127 -271,189 -438,189 -101,0 -199,-19 -290,-62 -88,-42 -167,-98 -235,-173 -66,-72 -121,-157 -161,-258 -39,-98 -58,-206 -58,-320 0,-108 19,-209 58,-304 40,-98 95,-179 164,-255 68,-72 147,-127 242,-169 91,-43 192,-63 300,-63 147,0 274,30 379,92 105,62 186,147 238,251l-228 170c-39,-78 -95,-137 -167,-179 -72,-43 -147,-62 -232,-62 -65,0 -127,13 -183,42 -55,26 -101,65 -140,114 -39,49 -69,108 -92,170 -19,66 -32,131 -32,203 0,75 13,143 36,209 23,65 55,121 98,170 42,45 91,85 147,111 55,26 117,42 183,42 153,0 290,-72 411,-219l0 -111 -317 0 0 -225 569 0 0 813 -252 0 0 -176 0 0zm513 176l0 -1581 304 0 0 1581 -304 0zm630 0l0 -1581 1052 0 0 268 -748 0 0 408 624 0 0 252 -624 0 0 653 -304 0 0 0zm2441 -1313l-503 0 0 1313 -301 0 0 -1313 -503 0 0 -268 1307 0 0 268 0 0zm565 513c0,-98 19,-193 52,-287 36,-95 85,-180 150,-252 69,-75 147,-137 245,-183 95,-46 203,-69 327,-69 144,0 268,33 372,98 105,63 183,147 236,249l-232 163c-23,-46 -46,-82 -75,-114 -30,-30 -62,-53 -95,-72 -36,-16 -72,-30 -108,-39 -36,-7 -72,-13 -108,-13 -75,0 -144,16 -199,49 -56,29 -105,71 -140,120 -40,49 -69,105 -85,170 -20,62 -30,124 -30,187 0,71 10,137 33,202 23,65 52,121 95,170 39,49 88,91 143,121 59,29 121,42 187,42 35,0 71,-3 111,-13 39,-10 75,-23 111,-42 32,-20 65,-43 94,-75 30,-30 53,-66 72,-108l249 144c-27,58 -63,111 -108,156 -46,46 -98,85 -157,115 -59,32 -121,55 -186,72 -66,16 -131,26 -193,26 -114,0 -216,-26 -307,-72 -95,-49 -173,-111 -242,-186 -65,-79 -117,-164 -157,-262 -36,-98 -55,-196 -55,-297l0 0zm2035 -781l268 0 594 1581 -313 0 -144 -392 -549 0 -144 392 -313 0 601 -1581 0 0zm349 970l-215 -620 -226 620 441 0 0 0zm686 611l0 -1581 693 0c72,0 140,17 199,46 62,29 115,69 160,121 43,49 79,104 102,170 26,62 39,124 39,189 0,101 -26,196 -75,281 -53,82 -121,144 -209,180l359 594 -343 0 -320 -529 -301 0 0 529 -304 0 0 0zm304 -800l383 0c29,0 55,-7 78,-20 26,-13 46,-29 62,-52 20,-23 33,-52 42,-82 10,-32 17,-65 17,-101 0,-36 -7,-72 -17,-101 -13,-33 -29,-59 -49,-82 -19,-23 -42,-42 -68,-55 -26,-13 -52,-20 -79,-20l-369 0 0 513 0 0zm1163 800l0 -1581 572 0c127,0 238,20 336,62 95,43 177,98 242,170 65,72 111,154 144,252 32,94 49,196 49,304 0,120 -17,231 -52,326 -36,98 -89,183 -157,252 -69,68 -150,121 -245,160 -95,39 -200,55 -317,55l-572 0 0 0zm1036 -793c0,-76 -10,-144 -30,-210 -19,-62 -52,-117 -91,-163 -39,-46 -88,-82 -147,-108 -59,-26 -124,-39 -196,-39l-265 0 0 1045 265 0c75,0 140,-13 199,-39 59,-29 108,-65 144,-111 39,-49 72,-101 91,-166 20,-66 30,-134 30,-210l0 1zm1480 -373c-10,-10 -30,-26 -56,-42 -29,-20 -62,-36 -101,-53 -39,-16 -82,-32 -128,-42 -42,-13 -91,-20 -137,-20 -85,0 -147,17 -189,46 -40,33 -59,75 -59,134 0,33 6,59 23,82 13,19 36,39 65,55 29,16 69,33 111,46 46,13 98,26 157,42 75,20 147,43 209,66 62,23 114,52 160,88 42,36 75,78 98,131 23,49 36,111 36,183 0,84 -16,156 -46,215 -32,62 -75,111 -130,147 -53,39 -115,65 -183,82 -72,16 -144,26 -223,26 -117,0 -232,-20 -346,-52 -114,-36 -219,-89 -310,-154l134 -264c13,13 39,29 72,52 36,23 75,42 124,65 45,20 98,39 157,52 55,17 114,23 176,23 167,0 251,-52 251,-163 0,-33 -9,-62 -29,-85 -20,-23 -46,-46 -82,-62 -35,-20 -78,-36 -127,-49 -52,-16 -108,-33 -170,-49 -75,-23 -137,-46 -193,-69 -55,-26 -101,-52 -140,-88 -36,-33 -62,-72 -82,-114 -19,-46 -26,-98 -26,-157 0,-82 13,-154 43,-216 29,-62 71,-114 124,-156 52,-40 111,-72 179,-95 72,-20 144,-30 226,-30 108,0 209,17 304,53 91,32 173,75 241,121l-134 251 1 0z"/>
  <polygon class="fil2" points="31820,2950 30863,2440 31150,3943 33643,3943 33930,2440 32970,2950 32397,1977 "/>
  <rect class="fil3" width="38877" height="5923"/>
  <path class="fil0" d="M14109 5841l0 -1414c121,0 235,0 362,-23l807 1437 1046 0 0 -147 -997 -1636c729,-471 709,-1173 709,-1931 -327,0 -647,0 -967,0 0,696 46,1408 -892,1408l-68 0 0 -1408c-327,0 -644,0 -957,0l0 3714c313,0 630,0 957,0l0 0zm3858 -833l0 -2051 431 0 0 -830 -1793 0 0 830 431 0 0 2051 -467 0 0 833 1865 0 0 -833 -467 0 0 0zm3537 833l337 0 0 -3714c-323,0 -644,0 -964,0l0 1820 -1858 -1836 -343 0 0 3730c320,0 646,0 973,0l0 -1826 1855 1826 0 0zm579 -1855c6,1267 950,1898 1888,1898 676,0 1375,-297 1636,-1072 128,-359 128,-715 105,-1087l-1738 0 0 823 784 0c-170,356 -412,457 -787,457 -559,0 -915,-405 -915,-1019 0,-568 320,-1036 915,-1036 372,0 614,128 764,445l925 0c-177,-921 -951,-1310 -1689,-1313 -938,0 -1882,633 -1888,1904l0 0z"/>
  <path class="fil4" d="M14331 1451c-124,127 -268,190 -435,190 -104,0 -199,-20 -290,-63 -92,-39 -170,-98 -235,-169 -69,-76 -121,-160 -161,-258 -39,-99 -58,-206 -58,-321 0,-107 19,-212 58,-307 40,-94 92,-179 161,-251 68,-72 150,-131 241,-173 95,-43 193,-62 304,-62 147,0 271,32 379,94 105,62 183,144 235,252l-225 170c-39,-79 -95,-141 -167,-183 -72,-39 -150,-62 -235,-62 -65,0 -124,16 -180,42 -55,30 -104,69 -143,118 -40,49 -69,104 -89,170 -23,62 -32,130 -32,202 0,72 13,144 36,206 22,65 55,121 94,170 43,49 92,85 147,114 59,26 121,39 187,39 150,0 287,-72 408,-215l0 -111 -314 0 0 -226 569 0 0 814 -255 0 0 -180 0 0zm513 180l0 -1585 304 0 0 1585 -304 0zm630 0l0 -1585 1055 0 0 272 -748 0 0 408 621 0 0 248 -621 0 0 657 -307 0 0 0zm2440 -1313l-499 0 0 1313 -304 0 0 -1313 -500 0 0 -272 1303 0 0 272 0 0zm569 509c0,-95 16,-193 52,-284 33,-95 85,-180 150,-255 66,-75 147,-134 242,-180 98,-45 206,-68 327,-68 143,0 271,29 375,95 105,65 183,147 236,248l-236 163c-19,-42 -45,-81 -75,-111 -29,-33 -62,-55 -94,-72 -33,-19 -69,-32 -105,-39 -39,-10 -75,-13 -108,-13 -78,0 -144,16 -202,46 -56,32 -102,72 -141,121 -36,52 -65,107 -85,169 -19,66 -29,128 -29,190 0,68 13,137 33,202 22,66 55,121 94,170 43,49 89,89 147,118 56,29 118,46 186,46 36,0 72,-7 112,-13 35,-10 75,-23 107,-43 36,-19 66,-46 98,-75 30,-29 53,-69 69,-111l248 144c-23,62 -59,114 -104,160 -46,42 -98,81 -157,114 -59,29 -121,56 -186,72 -69,16 -131,23 -196,23 -111,0 -213,-23 -307,-72 -92,-46 -174,-108 -239,-186 -68,-75 -121,-164 -157,-262 -36,-94 -55,-196 -55,-297zm2032 -781l268 0 597 1585 -313 0 -147 -396 -546 0 -144 396 -313 0 598 -1585 0 0zm349 974l-215 -621 -226 621 441 0 0 0zm689 611l0 -1585 693 0c72,0 137,17 199,46 62,33 115,72 157,121 46,49 78,108 105,170 26,62 36,127 36,189 0,105 -23,196 -76,281 -49,85 -117,144 -205,183l356 595 -340 0 -320 -529 -301 0 0 529 -304 0 0 0zm304 -801l383 0c26,0 52,-6 78,-19 23,-13 46,-33 62,-56 16,-23 33,-49 42,-81 10,-30 17,-66 17,-102 0,-36 -7,-68 -20,-101 -10,-29 -26,-59 -46,-82 -19,-22 -42,-39 -68,-52 -26,-13 -52,-19 -79,-19l-369 0 0 512 0 0zm1163 801l0 -1585 569 0c127,0 241,23 336,62 98,43 176,102 242,170 65,72 114,157 147,252 32,98 49,199 49,307 0,121 -20,229 -56,327 -36,98 -88,179 -153,248 -69,72 -151,124 -245,163 -95,36 -203,56 -320,56l-569 0 0 0zm1036 -794c0,-75 -10,-147 -33,-209 -20,-65 -49,-121 -88,-167 -43,-46 -88,-81 -147,-104 -59,-26 -124,-39 -199,-39l-265 0 0 1042 265 0c75,0 143,-13 199,-40 59,-26 108,-62 147,-111 39,-45 68,-101 88,-166 23,-62 33,-131 33,-206l0 0zm1476 -376c-10,-10 -26,-23 -55,-42 -26,-17 -59,-33 -98,-52 -39,-17 -82,-30 -128,-43 -45,-13 -91,-16 -140,-16 -82,0 -144,13 -186,45 -43,30 -62,76 -62,131 0,33 6,59 22,82 17,23 40,39 69,55 29,17 65,33 111,46 46,13 98,29 157,43 75,19 144,42 206,68 65,23 117,52 160,88 42,36 78,79 101,128 23,49 36,111 36,183 0,85 -16,160 -49,219 -33,58 -75,107 -127,147 -56,35 -115,62 -187,81 -68,17 -143,23 -219,23 -117,0 -235,-16 -349,-52 -114,-36 -219,-85 -307,-150l134 -268c13,16 36,32 72,52 32,23 75,46 121,65 49,23 101,39 156,56 59,16 118,23 177,23 170,0 251,-56 251,-164 0,-32 -10,-62 -29,-88 -16,-23 -46,-42 -78,-62 -36,-16 -79,-33 -131,-49 -49,-13 -105,-29 -167,-49 -75,-20 -140,-42 -196,-69 -55,-22 -101,-52 -137,-85 -36,-32 -65,-71 -82,-117 -19,-43 -29,-95 -29,-157 0,-78 16,-150 46,-212 29,-62 68,-115 121,-157 52,-42 114,-75 183,-95 68,-23 143,-32 222,-32 111,0 212,16 303,52 95,36 177,75 245,124l-137 248 0 0z"/>
 </g>
</svg>
